<mxfile host="www.draw.io" modified="2019-12-13T09:55:45.657Z" agent="Mozilla/5.0 (Windows NT 10.0; Win64; x64) AppleWebKit/537.36 (KHTML, like Gecko) Chrome/79.0.3945.79 Safari/537.36" etag="FXwSs0s6DDU_bFXlBWap" version="12.4.1" type="github" pages="2">
  <diagram id="XlqRfL-zaHm735wGdEow" name="Page-1">
    <mxGraphModel dx="1422" dy="762" grid="1" gridSize="10" guides="1" tooltips="1" connect="1" arrows="1" fold="1" page="1" pageScale="1" pageWidth="850" pageHeight="1100" math="0" shadow="0">
      <root>
        <mxCell id="0"/>
        <mxCell id="1" parent="0"/>
        <mxCell id="FVKXh6lLHv5-_vNJjcN4-1" value="Framwork" style="rounded=0;whiteSpace=wrap;html=1;" parent="1" vertex="1">
          <mxGeometry x="80" y="120" width="120" height="60" as="geometry"/>
        </mxCell>
        <mxCell id="FVKXh6lLHv5-_vNJjcN4-2" value="Server" style="rounded=0;whiteSpace=wrap;html=1;" parent="1" vertex="1">
          <mxGeometry x="80" y="240" width="120" height="60" as="geometry"/>
        </mxCell>
        <mxCell id="FVKXh6lLHv5-_vNJjcN4-3" value="account" style="rounded=0;whiteSpace=wrap;html=1;" parent="1" vertex="1">
          <mxGeometry x="200" y="360" width="120" height="60" as="geometry"/>
        </mxCell>
        <mxCell id="FVKXh6lLHv5-_vNJjcN4-4" value="admin" style="rounded=0;whiteSpace=wrap;html=1;" parent="1" vertex="1">
          <mxGeometry x="200" y="440" width="120" height="60" as="geometry"/>
        </mxCell>
        <mxCell id="FVKXh6lLHv5-_vNJjcN4-5" value="agent" style="rounded=0;whiteSpace=wrap;html=1;" parent="1" vertex="1">
          <mxGeometry x="200" y="520" width="120" height="60" as="geometry"/>
        </mxCell>
        <mxCell id="FVKXh6lLHv5-_vNJjcN4-7" value="control" style="rounded=0;whiteSpace=wrap;html=1;" parent="1" vertex="1">
          <mxGeometry x="200" y="600" width="120" height="60" as="geometry"/>
        </mxCell>
        <mxCell id="FVKXh6lLHv5-_vNJjcN4-8" value="file_upload" style="rounded=0;whiteSpace=wrap;html=1;" parent="1" vertex="1">
          <mxGeometry x="200" y="680" width="120" height="60" as="geometry"/>
        </mxCell>
        <mxCell id="FVKXh6lLHv5-_vNJjcN4-9" value="game" style="rounded=0;whiteSpace=wrap;html=1;" parent="1" vertex="1">
          <mxGeometry x="200" y="760" width="120" height="60" as="geometry"/>
        </mxCell>
        <mxCell id="FVKXh6lLHv5-_vNJjcN4-10" value="gate" style="rounded=0;whiteSpace=wrap;html=1;" parent="1" vertex="1">
          <mxGeometry x="200" y="840" width="120" height="60" as="geometry"/>
        </mxCell>
        <mxCell id="FVKXh6lLHv5-_vNJjcN4-11" value="gate_control" style="rounded=0;whiteSpace=wrap;html=1;" parent="1" vertex="1">
          <mxGeometry x="200" y="920" width="120" height="60" as="geometry"/>
        </mxCell>
        <mxCell id="FVKXh6lLHv5-_vNJjcN4-12" value="rpc" style="rounded=0;whiteSpace=wrap;html=1;" parent="1" vertex="1">
          <mxGeometry x="200" y="1000" width="120" height="60" as="geometry"/>
        </mxCell>
        <mxCell id="FVKXh6lLHv5-_vNJjcN4-14" value="" style="endArrow=classic;startArrow=classic;html=1;exitX=0.5;exitY=0;exitDx=0;exitDy=0;" parent="1" source="FVKXh6lLHv5-_vNJjcN4-2" edge="1">
          <mxGeometry width="50" height="50" relative="1" as="geometry">
            <mxPoint x="90" y="230" as="sourcePoint"/>
            <mxPoint x="140" y="180" as="targetPoint"/>
            <Array as="points"/>
          </mxGeometry>
        </mxCell>
        <mxCell id="FVKXh6lLHv5-_vNJjcN4-15" value="" style="endArrow=classic;html=1;entryX=0;entryY=0.5;entryDx=0;entryDy=0;" parent="1" target="FVKXh6lLHv5-_vNJjcN4-3" edge="1">
          <mxGeometry width="50" height="50" relative="1" as="geometry">
            <mxPoint x="135" y="300" as="sourcePoint"/>
            <mxPoint x="185" y="390" as="targetPoint"/>
            <Array as="points">
              <mxPoint x="135" y="390"/>
            </Array>
          </mxGeometry>
        </mxCell>
        <mxCell id="FVKXh6lLHv5-_vNJjcN4-17" value="tools" style="rounded=0;whiteSpace=wrap;html=1;" parent="1" vertex="1">
          <mxGeometry x="200" y="1080" width="120" height="60" as="geometry"/>
        </mxCell>
        <mxCell id="FVKXh6lLHv5-_vNJjcN4-18" value="" style="endArrow=classic;html=1;entryX=0;entryY=0.5;entryDx=0;entryDy=0;" parent="1" edge="1">
          <mxGeometry width="50" height="50" relative="1" as="geometry">
            <mxPoint x="135" y="380" as="sourcePoint"/>
            <mxPoint x="200" y="470" as="targetPoint"/>
            <Array as="points">
              <mxPoint x="135" y="470"/>
            </Array>
          </mxGeometry>
        </mxCell>
        <mxCell id="FVKXh6lLHv5-_vNJjcN4-19" value="" style="endArrow=classic;html=1;entryX=0;entryY=0.5;entryDx=0;entryDy=0;" parent="1" edge="1">
          <mxGeometry width="50" height="50" relative="1" as="geometry">
            <mxPoint x="135" y="465" as="sourcePoint"/>
            <mxPoint x="200" y="555" as="targetPoint"/>
            <Array as="points">
              <mxPoint x="135" y="555"/>
            </Array>
          </mxGeometry>
        </mxCell>
        <mxCell id="FVKXh6lLHv5-_vNJjcN4-20" value="" style="endArrow=classic;html=1;entryX=0;entryY=0.5;entryDx=0;entryDy=0;" parent="1" edge="1">
          <mxGeometry width="50" height="50" relative="1" as="geometry">
            <mxPoint x="135" y="550" as="sourcePoint"/>
            <mxPoint x="200" y="640" as="targetPoint"/>
            <Array as="points">
              <mxPoint x="135" y="640"/>
            </Array>
          </mxGeometry>
        </mxCell>
        <mxCell id="FVKXh6lLHv5-_vNJjcN4-21" value="" style="endArrow=classic;html=1;entryX=0;entryY=0.5;entryDx=0;entryDy=0;" parent="1" edge="1">
          <mxGeometry width="50" height="50" relative="1" as="geometry">
            <mxPoint x="135" y="635" as="sourcePoint"/>
            <mxPoint x="200" y="725" as="targetPoint"/>
            <Array as="points">
              <mxPoint x="135" y="725"/>
            </Array>
          </mxGeometry>
        </mxCell>
        <mxCell id="FVKXh6lLHv5-_vNJjcN4-22" value="" style="endArrow=classic;html=1;entryX=0;entryY=0.5;entryDx=0;entryDy=0;" parent="1" edge="1">
          <mxGeometry width="50" height="50" relative="1" as="geometry">
            <mxPoint x="135" y="715" as="sourcePoint"/>
            <mxPoint x="200" y="805" as="targetPoint"/>
            <Array as="points">
              <mxPoint x="135" y="805"/>
            </Array>
          </mxGeometry>
        </mxCell>
        <mxCell id="FVKXh6lLHv5-_vNJjcN4-23" value="" style="endArrow=classic;html=1;entryX=0;entryY=0.5;entryDx=0;entryDy=0;" parent="1" edge="1">
          <mxGeometry width="50" height="50" relative="1" as="geometry">
            <mxPoint x="135" y="795" as="sourcePoint"/>
            <mxPoint x="200" y="885" as="targetPoint"/>
            <Array as="points">
              <mxPoint x="135" y="885"/>
            </Array>
          </mxGeometry>
        </mxCell>
        <mxCell id="FVKXh6lLHv5-_vNJjcN4-24" value="" style="endArrow=classic;html=1;entryX=0;entryY=0.5;entryDx=0;entryDy=0;" parent="1" edge="1">
          <mxGeometry width="50" height="50" relative="1" as="geometry">
            <mxPoint x="135" y="880" as="sourcePoint"/>
            <mxPoint x="200" y="970" as="targetPoint"/>
            <Array as="points">
              <mxPoint x="135" y="970"/>
            </Array>
          </mxGeometry>
        </mxCell>
        <mxCell id="FVKXh6lLHv5-_vNJjcN4-25" value="" style="endArrow=classic;html=1;entryX=0;entryY=0.5;entryDx=0;entryDy=0;" parent="1" edge="1">
          <mxGeometry width="50" height="50" relative="1" as="geometry">
            <mxPoint x="135" y="960" as="sourcePoint"/>
            <mxPoint x="200" y="1050" as="targetPoint"/>
            <Array as="points">
              <mxPoint x="135" y="1050"/>
            </Array>
          </mxGeometry>
        </mxCell>
        <mxCell id="FVKXh6lLHv5-_vNJjcN4-26" value="" style="endArrow=classic;html=1;entryX=0;entryY=0.5;entryDx=0;entryDy=0;" parent="1" edge="1">
          <mxGeometry width="50" height="50" relative="1" as="geometry">
            <mxPoint x="135" y="1035" as="sourcePoint"/>
            <mxPoint x="200" y="1125" as="targetPoint"/>
            <Array as="points">
              <mxPoint x="135" y="1125"/>
            </Array>
          </mxGeometry>
        </mxCell>
        <mxCell id="FVKXh6lLHv5-_vNJjcN4-30" style="edgeStyle=orthogonalEdgeStyle;rounded=0;orthogonalLoop=1;jettySize=auto;html=1;exitX=0.5;exitY=1;exitDx=0;exitDy=0;exitPerimeter=0;" parent="1" edge="1">
          <mxGeometry relative="1" as="geometry">
            <mxPoint x="400" y="410" as="sourcePoint"/>
            <mxPoint x="400" y="410" as="targetPoint"/>
          </mxGeometry>
        </mxCell>
        <mxCell id="FVKXh6lLHv5-_vNJjcN4-31" value="Login from user" style="rounded=1;whiteSpace=wrap;html=1;" parent="1" vertex="1">
          <mxGeometry x="360" y="360" width="120" height="60" as="geometry"/>
        </mxCell>
        <mxCell id="FVKXh6lLHv5-_vNJjcN4-32" value="" style="endArrow=none;dashed=1;html=1;" parent="1" edge="1">
          <mxGeometry width="50" height="50" relative="1" as="geometry">
            <mxPoint x="320" y="390" as="sourcePoint"/>
            <mxPoint x="360" y="390" as="targetPoint"/>
          </mxGeometry>
        </mxCell>
        <mxCell id="FVKXh6lLHv5-_vNJjcN4-34" value="To control the admin(Local)" style="rounded=1;whiteSpace=wrap;html=1;" parent="1" vertex="1">
          <mxGeometry x="360" y="440" width="120" height="60" as="geometry"/>
        </mxCell>
        <mxCell id="FVKXh6lLHv5-_vNJjcN4-35" value="" style="endArrow=none;dashed=1;html=1;" parent="1" edge="1">
          <mxGeometry width="50" height="50" relative="1" as="geometry">
            <mxPoint x="320" y="470" as="sourcePoint"/>
            <mxPoint x="360" y="470" as="targetPoint"/>
          </mxGeometry>
        </mxCell>
        <mxCell id="FVKXh6lLHv5-_vNJjcN4-36" value="To control the agent(Local)" style="rounded=1;whiteSpace=wrap;html=1;" parent="1" vertex="1">
          <mxGeometry x="360" y="520" width="120" height="60" as="geometry"/>
        </mxCell>
        <mxCell id="FVKXh6lLHv5-_vNJjcN4-37" value="" style="endArrow=none;dashed=1;html=1;" parent="1" edge="1">
          <mxGeometry width="50" height="50" relative="1" as="geometry">
            <mxPoint x="320" y="550" as="sourcePoint"/>
            <mxPoint x="360" y="550" as="targetPoint"/>
          </mxGeometry>
        </mxCell>
        <mxCell id="FVKXh6lLHv5-_vNJjcN4-38" value="To make the control(Local)" style="rounded=1;whiteSpace=wrap;html=1;" parent="1" vertex="1">
          <mxGeometry x="360" y="600" width="120" height="60" as="geometry"/>
        </mxCell>
        <mxCell id="FVKXh6lLHv5-_vNJjcN4-39" value="" style="endArrow=none;dashed=1;html=1;" parent="1" edge="1">
          <mxGeometry width="50" height="50" relative="1" as="geometry">
            <mxPoint x="320" y="630" as="sourcePoint"/>
            <mxPoint x="360" y="630" as="targetPoint"/>
          </mxGeometry>
        </mxCell>
        <mxCell id="FVKXh6lLHv5-_vNJjcN4-40" value="To upload file from mobile" style="rounded=1;whiteSpace=wrap;html=1;" parent="1" vertex="1">
          <mxGeometry x="360" y="680" width="120" height="60" as="geometry"/>
        </mxCell>
        <mxCell id="FVKXh6lLHv5-_vNJjcN4-41" value="" style="endArrow=none;dashed=1;html=1;" parent="1" edge="1">
          <mxGeometry width="50" height="50" relative="1" as="geometry">
            <mxPoint x="320" y="710" as="sourcePoint"/>
            <mxPoint x="360" y="710" as="targetPoint"/>
          </mxGeometry>
        </mxCell>
        <mxCell id="FVKXh6lLHv5-_vNJjcN4-42" value="To control the game(Local)" style="rounded=1;whiteSpace=wrap;html=1;" parent="1" vertex="1">
          <mxGeometry x="360" y="760" width="120" height="60" as="geometry"/>
        </mxCell>
        <mxCell id="FVKXh6lLHv5-_vNJjcN4-43" value="" style="endArrow=none;dashed=1;html=1;" parent="1" edge="1">
          <mxGeometry width="50" height="50" relative="1" as="geometry">
            <mxPoint x="320" y="790" as="sourcePoint"/>
            <mxPoint x="360" y="790" as="targetPoint"/>
          </mxGeometry>
        </mxCell>
        <mxCell id="FVKXh6lLHv5-_vNJjcN4-44" value="To connect internal service and request(entrance)" style="rounded=1;whiteSpace=wrap;html=1;" parent="1" vertex="1">
          <mxGeometry x="360" y="840" width="120" height="60" as="geometry"/>
        </mxCell>
        <mxCell id="FVKXh6lLHv5-_vNJjcN4-45" value="" style="endArrow=none;dashed=1;html=1;" parent="1" edge="1">
          <mxGeometry width="50" height="50" relative="1" as="geometry">
            <mxPoint x="320" y="870" as="sourcePoint"/>
            <mxPoint x="360" y="870" as="targetPoint"/>
          </mxGeometry>
        </mxCell>
        <mxCell id="FVKXh6lLHv5-_vNJjcN4-46" value="Another gate control(entrance)" style="rounded=1;whiteSpace=wrap;html=1;" parent="1" vertex="1">
          <mxGeometry x="360" y="920" width="120" height="60" as="geometry"/>
        </mxCell>
        <mxCell id="FVKXh6lLHv5-_vNJjcN4-47" value="" style="endArrow=none;dashed=1;html=1;" parent="1" edge="1">
          <mxGeometry width="50" height="50" relative="1" as="geometry">
            <mxPoint x="320" y="950" as="sourcePoint"/>
            <mxPoint x="360" y="950" as="targetPoint"/>
          </mxGeometry>
        </mxCell>
        <mxCell id="FVKXh6lLHv5-_vNJjcN4-48" value="To communicate between user" style="rounded=1;whiteSpace=wrap;html=1;" parent="1" vertex="1">
          <mxGeometry x="360" y="1000" width="120" height="60" as="geometry"/>
        </mxCell>
        <mxCell id="FVKXh6lLHv5-_vNJjcN4-49" value="" style="endArrow=none;dashed=1;html=1;" parent="1" edge="1">
          <mxGeometry width="50" height="50" relative="1" as="geometry">
            <mxPoint x="320" y="1030" as="sourcePoint"/>
            <mxPoint x="360" y="1030" as="targetPoint"/>
          </mxGeometry>
        </mxCell>
        <mxCell id="FVKXh6lLHv5-_vNJjcN4-50" value="To test but not too much use" style="rounded=1;whiteSpace=wrap;html=1;" parent="1" vertex="1">
          <mxGeometry x="360" y="1080" width="120" height="60" as="geometry"/>
        </mxCell>
        <mxCell id="FVKXh6lLHv5-_vNJjcN4-51" value="" style="endArrow=none;dashed=1;html=1;" parent="1" edge="1">
          <mxGeometry width="50" height="50" relative="1" as="geometry">
            <mxPoint x="320" y="1110" as="sourcePoint"/>
            <mxPoint x="360" y="1110" as="targetPoint"/>
          </mxGeometry>
        </mxCell>
        <mxCell id="cglkMsHrZRn6uQI5fPqz-1" value="NinthArt Framwork" style="text;html=1;strokeColor=#d79b00;fillColor=#ffe6cc;align=center;verticalAlign=middle;whiteSpace=wrap;rounded=0;fontSize=23;fontStyle=1" vertex="1" parent="1">
          <mxGeometry x="320" y="40" width="240" height="30" as="geometry"/>
        </mxCell>
      </root>
    </mxGraphModel>
  </diagram>
  <diagram id="pZtT5KTQdcL7jBEAHjAP" name="Page-2">
    <mxGraphModel dx="1422" dy="762" grid="1" gridSize="10" guides="1" tooltips="1" connect="1" arrows="1" fold="1" page="1" pageScale="1" pageWidth="850" pageHeight="1100" math="0" shadow="0">
      <root>
        <mxCell id="3SmIZbTp3iJtKPYWWlYy-0"/>
        <mxCell id="3SmIZbTp3iJtKPYWWlYy-1" parent="3SmIZbTp3iJtKPYWWlYy-0"/>
        <mxCell id="3SmIZbTp3iJtKPYWWlYy-2" value="Admin" style="rounded=0;whiteSpace=wrap;html=1;" parent="3SmIZbTp3iJtKPYWWlYy-1" vertex="1">
          <mxGeometry x="80" y="80" width="120" height="60" as="geometry"/>
        </mxCell>
        <mxCell id="3SmIZbTp3iJtKPYWWlYy-3" value="app" style="rounded=0;whiteSpace=wrap;html=1;" parent="3SmIZbTp3iJtKPYWWlYy-1" vertex="1">
          <mxGeometry x="200" y="200" width="120" height="60" as="geometry"/>
        </mxCell>
        <mxCell id="3SmIZbTp3iJtKPYWWlYy-4" value="config" style="rounded=0;whiteSpace=wrap;html=1;" parent="3SmIZbTp3iJtKPYWWlYy-1" vertex="1">
          <mxGeometry x="200" y="320" width="120" height="60" as="geometry"/>
        </mxCell>
        <mxCell id="3SmIZbTp3iJtKPYWWlYy-5" value="logs" style="rounded=0;whiteSpace=wrap;html=1;" parent="3SmIZbTp3iJtKPYWWlYy-1" vertex="1">
          <mxGeometry x="200" y="440" width="120" height="60" as="geometry"/>
        </mxCell>
        <mxCell id="3SmIZbTp3iJtKPYWWlYy-6" value="run" style="rounded=0;whiteSpace=wrap;html=1;" parent="3SmIZbTp3iJtKPYWWlYy-1" vertex="1">
          <mxGeometry x="200" y="560" width="120" height="60" as="geometry"/>
        </mxCell>
        <mxCell id="3SmIZbTp3iJtKPYWWlYy-7" value="test" style="rounded=0;whiteSpace=wrap;html=1;" parent="3SmIZbTp3iJtKPYWWlYy-1" vertex="1">
          <mxGeometry x="200" y="680" width="120" height="60" as="geometry"/>
        </mxCell>
        <mxCell id="3SmIZbTp3iJtKPYWWlYy-8" value="" style="endArrow=classic;html=1;entryX=0;entryY=0.5;entryDx=0;entryDy=0;" parent="3SmIZbTp3iJtKPYWWlYy-1" target="3SmIZbTp3iJtKPYWWlYy-3" edge="1">
          <mxGeometry width="50" height="50" relative="1" as="geometry">
            <mxPoint x="140" y="140" as="sourcePoint"/>
            <mxPoint x="180" y="230" as="targetPoint"/>
            <Array as="points">
              <mxPoint x="140" y="230"/>
            </Array>
          </mxGeometry>
        </mxCell>
        <mxCell id="3SmIZbTp3iJtKPYWWlYy-9" value="" style="endArrow=classic;html=1;entryX=0;entryY=0.5;entryDx=0;entryDy=0;" parent="3SmIZbTp3iJtKPYWWlYy-1" edge="1">
          <mxGeometry width="50" height="50" relative="1" as="geometry">
            <mxPoint x="140" y="225" as="sourcePoint"/>
            <mxPoint x="200" y="350" as="targetPoint"/>
            <Array as="points">
              <mxPoint x="140" y="350"/>
            </Array>
          </mxGeometry>
        </mxCell>
        <mxCell id="3SmIZbTp3iJtKPYWWlYy-10" value="" style="endArrow=classic;html=1;entryX=0;entryY=0.5;entryDx=0;entryDy=0;" parent="3SmIZbTp3iJtKPYWWlYy-1" edge="1">
          <mxGeometry width="50" height="50" relative="1" as="geometry">
            <mxPoint x="140" y="345" as="sourcePoint"/>
            <mxPoint x="200" y="470" as="targetPoint"/>
            <Array as="points">
              <mxPoint x="140" y="470"/>
            </Array>
          </mxGeometry>
        </mxCell>
        <mxCell id="3SmIZbTp3iJtKPYWWlYy-11" value="" style="endArrow=classic;html=1;entryX=0;entryY=0.5;entryDx=0;entryDy=0;" parent="3SmIZbTp3iJtKPYWWlYy-1" edge="1">
          <mxGeometry width="50" height="50" relative="1" as="geometry">
            <mxPoint x="140" y="467.5" as="sourcePoint"/>
            <mxPoint x="200" y="592.5" as="targetPoint"/>
            <Array as="points">
              <mxPoint x="140" y="592.5"/>
            </Array>
          </mxGeometry>
        </mxCell>
        <mxCell id="3SmIZbTp3iJtKPYWWlYy-12" value="" style="endArrow=classic;html=1;entryX=0;entryY=0.5;entryDx=0;entryDy=0;" parent="3SmIZbTp3iJtKPYWWlYy-1" edge="1">
          <mxGeometry width="50" height="50" relative="1" as="geometry">
            <mxPoint x="140" y="580" as="sourcePoint"/>
            <mxPoint x="200" y="705" as="targetPoint"/>
            <Array as="points">
              <mxPoint x="140" y="705"/>
            </Array>
          </mxGeometry>
        </mxCell>
      </root>
    </mxGraphModel>
  </diagram>
</mxfile>
